<svg width="54" height="54" viewBox="0 0 54 54" fill="none" xmlns="http://www.w3.org/2000/svg">
<path d="M26.9999 0.333328C12.2799 0.333328 0.333252 12.28 0.333252 27C0.333252 41.72 12.2799 53.6667 26.9999 53.6667C41.7199 53.6667 53.6666 41.72 53.6666 27C53.6666 12.28 41.7199 0.333328 26.9999 0.333328ZM26.9999 11C32.1466 11 36.3332 15.1867 36.3332 20.3333C36.3332 25.48 32.1466 29.6667 26.9999 29.6667C21.8533 29.6667 17.6666 25.48 17.6666 20.3333C17.6666 15.1867 21.8533 11 26.9999 11ZM26.9999 48.3333C21.5866 48.3333 15.1866 46.1467 10.6266 40.6533C15.2975 36.9886 21.0629 34.9968 26.9999 34.9968C32.9369 34.9968 38.7023 36.9886 43.3732 40.6533C38.8132 46.1467 32.4132 48.3333 26.9999 48.3333Z" fill="#D9D9D9"/>
</svg>
