<svg width="19" height="23" viewBox="0 0 19 23" fill="none" xmlns="http://www.w3.org/2000/svg">
<path d="M12.6033 21.727C11.6046 22.7732 9.98832 22.2107 9.56457 20.9895C9.21457 19.9807 8.75957 18.7745 8.31707 17.8857C6.99207 15.2282 6.21957 13.7157 4.08707 11.8232C3.77452 11.5601 3.41888 11.3529 3.03582 11.2107C1.62332 10.6532 0.298324 9.19199 0.644574 7.45574L1.08582 5.24949C1.19959 4.68027 1.46966 4.15399 1.86575 3.72964C2.26183 3.3053 2.76828 2.99966 3.32832 2.84699L10.3283 0.938241C11.0803 0.733399 11.8666 0.687058 12.6375 0.802158C13.4083 0.917258 14.1468 1.19129 14.8061 1.60686C15.4654 2.02244 16.0312 2.5705 16.4676 3.21628C16.9039 3.86206 17.2013 4.59147 17.3408 5.35824L18.1971 10.0607C18.2954 10.6012 18.2738 11.1567 18.1338 11.6879C17.9937 12.2191 17.7387 12.7131 17.3867 13.1348C17.0347 13.5566 16.5943 13.8959 16.0967 14.1287C15.5991 14.3615 15.0564 14.4821 14.5071 14.482H13.4033L13.4158 14.547C13.5158 15.057 13.6358 15.7595 13.7158 16.5257C13.7971 17.2882 13.8408 18.1307 13.7771 18.9157C13.7146 19.687 13.5471 20.4782 13.1471 21.0782C12.9835 21.3087 12.8016 21.5256 12.6033 21.727Z" fill="#101725"/>
</svg>
