<svg width="35" height="35" viewBox="0 0 35 35" fill="none" xmlns="http://www.w3.org/2000/svg">
<circle cx="17.5" cy="17.5" r="17.5" transform="rotate(90 17.5 17.5)" fill="white"/>
<path d="M20.3424 23.2475L14.2524 17L20.3424 10.7525C20.4514 10.6409 20.5124 10.491 20.5124 10.335C20.5124 10.179 20.4514 10.0291 20.3424 9.9175C20.2894 9.86346 20.2262 9.82052 20.1564 9.79121C20.0867 9.76189 20.0118 9.7468 19.9361 9.7468C19.8604 9.7468 19.7855 9.76189 19.7158 9.79121C19.646 9.82052 19.5828 9.86346 19.5299 9.9175L13.0499 16.5638C12.9361 16.6805 12.8724 16.837 12.8724 17C12.8724 17.163 12.9361 17.3195 13.0499 17.4363L19.5286 24.0825C19.5816 24.1369 19.645 24.1802 19.715 24.2097C19.7849 24.2393 19.8601 24.2545 19.9361 24.2545C20.0121 24.2545 20.0873 24.2393 20.1573 24.2097C20.2272 24.1802 20.2906 24.1369 20.3436 24.0825C20.4526 23.9709 20.5137 23.821 20.5137 23.665C20.5137 23.509 20.4526 23.3591 20.3436 23.2475H20.3424Z" fill="#101725" stroke="#101725"/>
</svg>
