<svg width="19" height="23" viewBox="0 0 19 23" fill="none" xmlns="http://www.w3.org/2000/svg">
<path d="M12.6033 1.12992C11.6046 0.0836685 9.98832 0.646168 9.56457 1.86742C9.21457 2.87492 8.75957 4.08242 8.31707 4.97117C6.99207 7.62867 6.21957 9.13992 4.08707 11.0324C3.77452 11.2956 3.41888 11.5028 3.03582 11.6449C1.62332 12.2024 0.298324 13.6649 0.644574 15.4012L1.08582 17.6074C1.19959 18.1766 1.46966 18.7029 1.86575 19.1273C2.26183 19.5516 2.76828 19.8573 3.32832 20.0099L10.3283 21.9187C11.0804 22.1235 11.8668 22.1698 12.6377 22.0546C13.4086 21.9394 14.1472 21.6653 14.8065 21.2496C15.4658 20.8339 16.0316 20.2857 16.4679 19.6398C16.9041 18.9938 17.2014 18.2643 17.3408 17.4974L18.1971 12.7962C18.2954 12.2557 18.2738 11.7002 18.1338 11.169C17.9937 10.6378 17.7387 10.1438 17.3867 9.72207C17.0347 9.3003 16.5943 8.96103 16.0967 8.72824C15.5991 8.49545 15.0564 8.37484 14.5071 8.37492H13.4033L13.4158 8.30992C13.5158 7.79867 13.6358 7.09742 13.7158 6.33117C13.7971 5.56867 13.8408 4.72492 13.7771 3.93992C13.7146 3.16992 13.5471 2.37867 13.1471 1.77742C12.9837 1.54718 12.8019 1.33063 12.6033 1.12992Z" fill="#101725"/>
</svg>
