<svg width="22" height="22" viewBox="0 0 22 22" fill="none" xmlns="http://www.w3.org/2000/svg">
<path fill-rule="evenodd" clip-rule="evenodd" d="M15.305 14.2795L20.9091 19.8836C21.1061 20.0807 21.2167 20.348 21.2166 20.6267C21.2165 20.9054 21.1057 21.1726 20.9086 21.3696C20.7115 21.5665 20.4442 21.6771 20.1655 21.677C19.8869 21.6769 19.6197 21.5662 19.4227 21.369L13.8185 15.7649C12.1432 17.0625 10.0365 17.6731 7.92698 17.4725C5.81745 17.272 3.86355 16.2753 2.46277 14.6853C1.06199 13.0953 0.319548 11.0313 0.386487 8.91336C0.453426 6.79537 1.32471 4.78243 2.82311 3.28404C4.3215 1.78565 6.33443 0.914364 8.45242 0.847425C10.5704 0.780486 12.6343 1.52292 14.2244 2.92371C15.8144 4.32449 16.811 6.27839 17.0116 8.38792C17.2121 10.4975 16.6015 12.6042 15.3039 14.2795H15.305ZM8.71643 15.4263C10.374 15.4263 11.9637 14.7678 13.1358 13.5957C14.308 12.4236 14.9664 10.8339 14.9664 9.17633C14.9664 7.51873 14.308 5.92901 13.1358 4.75691C11.9637 3.58481 10.374 2.92633 8.71643 2.92633C7.05883 2.92633 5.46912 3.58481 4.29702 4.75691C3.12491 5.92901 2.46643 7.51873 2.46643 9.17633C2.46643 10.8339 3.12491 12.4236 4.29702 13.5957C5.46912 14.7678 7.05883 15.4263 8.71643 15.4263Z" fill="#A1C767"/>
</svg>
