<svg width="35" height="35" viewBox="0 0 35 35" fill="none" xmlns="http://www.w3.org/2000/svg">
<circle cx="17.5" cy="17.5" r="17.5" transform="rotate(-90 17.5 17.5)" fill="white"/>
<path d="M14.6576 11.7525L20.7476 18L14.6576 24.2475C14.5486 24.3591 14.4876 24.509 14.4876 24.665C14.4876 24.821 14.5486 24.9709 14.6576 25.0825C14.7106 25.1365 14.7738 25.1795 14.8436 25.2088C14.9133 25.2381 14.9882 25.2532 15.0639 25.2532C15.1396 25.2532 15.2145 25.2381 15.2842 25.2088C15.354 25.1795 15.4172 25.1365 15.4701 25.0825L21.9501 18.4362C22.0639 18.3195 22.1276 18.163 22.1276 18C22.1276 17.837 22.0639 17.6805 21.9501 17.5637L15.4714 10.9175C15.4184 10.8631 15.355 10.8198 15.285 10.7903C15.2151 10.7607 15.1399 10.7455 15.0639 10.7455C14.9879 10.7455 14.9127 10.7607 14.8427 10.7903C14.7728 10.8198 14.7094 10.8631 14.6564 10.9175C14.5474 11.0291 14.4863 11.179 14.4863 11.335C14.4863 11.491 14.5474 11.6409 14.6564 11.7525H14.6576Z" fill="#101725" stroke="#101725"/>
</svg>
