<svg width="28" height="28" viewBox="0 0 28 28" fill="none" xmlns="http://www.w3.org/2000/svg">
<path d="M13.5333 2.7998C12.4565 2.7998 11.4039 3.11671 10.5086 3.71046C9.61323 4.30421 8.9154 5.14812 8.50333 6.13548C8.09125 7.12284 7.98343 8.20931 8.19351 9.25749C8.40358 10.3057 8.92211 11.2685 9.68353 12.0242C10.445 12.7799 11.4151 13.2945 12.4712 13.503C13.5273 13.7115 14.622 13.6045 15.6168 13.1955C16.6117 12.7865 17.462 12.0939 18.0602 11.2053C18.6585 10.3167 18.9778 9.27203 18.9778 8.20331C18.9778 6.77021 18.4042 5.39581 17.3831 4.38246C16.3621 3.3691 14.9773 2.7998 13.5333 2.7998V2.7998ZM13.5333 11.4454C12.8873 11.4454 12.2557 11.2553 11.7185 10.899C11.1813 10.5428 10.7626 10.0364 10.5153 9.44401C10.2681 8.8516 10.2034 8.19972 10.3294 7.57081C10.4555 6.9419 10.7666 6.36422 11.2235 5.9108C11.6803 5.45738 12.2624 5.1486 12.896 5.0235C13.5297 4.89841 14.1865 4.96261 14.7834 5.208C15.3803 5.45339 15.8905 5.86893 16.2495 6.4021C16.6084 6.93526 16.8 7.56209 16.8 8.20331C16.8 9.06317 16.4558 9.88782 15.8432 10.4958C15.2306 11.1038 14.3997 11.4454 13.5333 11.4454V11.4454ZM23.3333 23.3331V22.2524C23.3333 20.2461 22.5303 18.3219 21.1008 16.9032C19.6714 15.4845 17.7327 14.6875 15.7111 14.6875H11.3556C9.33402 14.6875 7.39528 15.4845 5.96583 16.9032C4.53639 18.3219 3.73334 20.2461 3.73334 22.2524V23.3331H5.91112V22.2524C5.91112 20.8193 6.48472 19.4449 7.50576 18.4316C8.52679 17.4182 9.9116 16.8489 11.3556 16.8489H15.7111C17.1551 16.8489 18.5399 17.4182 19.5609 18.4316C20.582 19.4449 21.1556 20.8193 21.1556 22.2524V23.3331H23.3333Z" fill="#101725" fill-opacity="0.7"/>
</svg>
