<svg width="28" height="28" viewBox="0 0 28 28" fill="none" xmlns="http://www.w3.org/2000/svg">
<path d="M14 2.33337C7.56004 2.33337 2.33337 7.56004 2.33337 14C2.33337 20.44 7.56004 25.6667 14 25.6667H19.8334V23.3334H14C8.93671 23.3334 4.66671 19.0634 4.66671 14C4.66671 8.93671 8.93671 4.66671 14 4.66671C19.0634 4.66671 23.3334 8.93671 23.3334 14V15.6684C23.3334 16.59 22.505 17.5 21.5834 17.5C20.6617 17.5 19.8334 16.59 19.8334 15.6684V14C19.8334 10.78 17.22 8.16671 14 8.16671C10.78 8.16671 8.16671 10.78 8.16671 14C8.16671 17.22 10.78 19.8334 14 19.8334C15.61 19.8334 17.08 19.18 18.13 18.1184C18.8884 19.1567 20.195 19.8334 21.5834 19.8334C23.8817 19.8334 25.6667 17.9667 25.6667 15.6684V14C25.6667 7.56004 20.44 2.33337 14 2.33337ZM14 17.5C12.0634 17.5 10.5 15.9367 10.5 14C10.5 12.0634 12.0634 10.5 14 10.5C15.9367 10.5 17.5 12.0634 17.5 14C17.5 15.9367 15.9367 17.5 14 17.5Z" fill="#101725" fill-opacity="0.7"/>
</svg>
