<svg width="24" height="26" viewBox="0 0 24 26" fill="none" xmlns="http://www.w3.org/2000/svg">
<path d="M21.4286 0.75H2.57143C1.88944 0.75 1.23539 1.02656 0.753154 1.51884C0.270918 2.01113 0 2.67881 0 3.375L0 22.625C0 23.3212 0.270918 23.9889 0.753154 24.4812C1.23539 24.9734 1.88944 25.25 2.57143 25.25H9.92411V16.9205H6.54911V13H9.92411V10.0119C9.92411 6.61305 11.9063 4.73562 14.9421 4.73562C16.3961 4.73562 17.9164 5.00031 17.9164 5.00031V8.33625H16.2413C14.5907 8.33625 14.0759 9.38188 14.0759 10.4543V13H17.7605L17.1712 16.9205H14.0759V25.25H21.4286C22.1106 25.25 22.7646 24.9734 23.2468 24.4812C23.7291 23.9889 24 23.3212 24 22.625V3.375C24 2.67881 23.7291 2.01113 23.2468 1.51884C22.7646 1.02656 22.1106 0.75 21.4286 0.75Z" fill="white"/>
</svg>
