<svg width="24" height="24" viewBox="0 0 24 24" fill="none" xmlns="http://www.w3.org/2000/svg">
<path d="M22.7812 0.28125H1.21875C0.700195 0.28125 0.28125 0.700195 0.28125 1.21875V22.7812C0.28125 23.2998 0.700195 23.7188 1.21875 23.7188H22.7812C23.2998 23.7188 23.7188 23.2998 23.7188 22.7812V1.21875C23.7188 0.700195 23.2998 0.28125 22.7812 0.28125ZM16.8926 17.4375C15.7031 18.5332 14.0801 19.1777 12.1436 19.1777C9.33984 19.1777 6.91406 17.5693 5.7334 15.2256C5.23034 14.2248 4.96848 13.1201 4.96875 12C4.96875 10.8398 5.24707 9.74414 5.7334 8.77441C6.91406 6.42773 9.33984 4.81934 12.1436 4.81934C14.0771 4.81934 15.7002 5.53125 16.9453 6.68848L14.8887 8.74805C14.1445 8.03613 13.1982 7.67578 12.1465 7.67578C10.2773 7.67578 8.69531 8.93848 8.12988 10.6348C7.98633 11.0654 7.9043 11.5254 7.9043 12C7.9043 12.4746 7.98633 12.9346 8.12988 13.3652C8.69531 15.0615 10.2773 16.3242 12.1436 16.3242C13.1104 16.3242 13.9307 16.0693 14.5723 15.6387C15.334 15.1289 15.8379 14.3701 16.0049 13.4707H12.1436V10.6934H18.9023C18.9873 11.165 19.0312 11.6543 19.0312 12.1611C19.0312 14.3496 18.249 16.1865 16.8926 17.4375Z" fill="white"/>
</svg>
