<svg width="40" height="40" viewBox="0 0 40 40" fill="none" xmlns="http://www.w3.org/2000/svg">
<circle cx="20" cy="20" r="20" fill="white"/>
<g clip-path="url(#clip0_474_301)">
<path d="M29.9818 18.6582C30.6148 19.0535 31 19.7498 31 20.5C31 21.2502 30.6148 21.9465 29.9818 22.3013L17.2331 30.2076C16.577 30.6523 15.7558 30.6703 15.0855 30.2885C14.7561 30.1009 14.4819 29.8276 14.2911 29.4968C14.1003 29.166 13.9998 28.7895 14 28.4062V12.5937C14.0001 12.2106 14.1006 11.8345 14.2914 11.5039C14.4822 11.1734 14.7563 10.9003 15.0855 10.7128C15.4148 10.5256 15.7873 10.4306 16.1648 10.4378C16.5422 10.445 16.9109 10.554 17.2331 10.7537L29.9818 18.6582Z" fill="black"/>
</g>
<defs>
<clipPath id="clip0_474_301">
<rect width="17" height="23" fill="white" transform="translate(14 9)"/>
</clipPath>
</defs>
</svg>
