<svg width="25" height="21" viewBox="0 0 25 21" fill="none" xmlns="http://www.w3.org/2000/svg">
<path d="M2.29171 11.9583H19.5875L14.2938 18.3167C14.1712 18.4641 14.0789 18.6343 14.0221 18.8174C13.9653 19.0006 13.9451 19.1931 13.9627 19.3841C13.9983 19.7697 14.1856 20.1254 14.4834 20.3729C14.7812 20.6205 15.1651 20.7395 15.5508 20.704C15.9364 20.6684 16.2921 20.4811 16.5396 20.1833L23.8313 11.4333C23.8804 11.3637 23.9242 11.2906 23.9625 11.2146C23.9625 11.1417 24.0355 11.0979 24.0646 11.025C24.1307 10.8578 24.1653 10.6798 24.1667 10.5C24.1653 10.3202 24.1307 10.1422 24.0646 9.975C24.0646 9.90208 23.9917 9.85833 23.9625 9.78542C23.9242 9.70938 23.8804 9.63626 23.8313 9.56667L16.5396 0.816667C16.4025 0.652046 16.2308 0.519659 16.0367 0.42892C15.8426 0.338181 15.631 0.291319 15.4167 0.291667C15.076 0.291001 14.7457 0.409674 14.4834 0.627084C14.3357 0.749509 14.2136 0.899864 14.1242 1.06954C14.0347 1.23921 13.9796 1.42487 13.962 1.61588C13.9444 1.80688 13.9646 1.99949 14.0215 2.18266C14.0785 2.36583 14.171 2.53597 14.2938 2.68333L19.5875 9.04167H2.29171C1.90493 9.04167 1.534 9.19531 1.26051 9.4688C0.98702 9.74229 0.833374 10.1132 0.833374 10.5C0.833374 10.8868 0.98702 11.2577 1.26051 11.5312C1.534 11.8047 1.90493 11.9583 2.29171 11.9583Z" fill="#101725"/>
</svg>
