<svg width="106" height="95" viewBox="0 0 106 95" fill="none" xmlns="http://www.w3.org/2000/svg">
<path d="M100.25 21.5H79.25V5.75C79.25 4.35761 78.6969 3.02226 77.7123 2.03769C76.7277 1.05312 75.3924 0.5 74 0.5H32C30.6076 0.5 29.2723 1.05312 28.2877 2.03769C27.3031 3.02226 26.75 4.35761 26.75 5.75V42.5H5.75C4.35761 42.5 3.02226 43.0531 2.03769 44.0377C1.05312 45.0223 0.5 46.3576 0.5 47.75V89.75C0.5 91.1424 1.05312 92.4777 2.03769 93.4623C3.02226 94.4469 4.35761 95 5.75 95H100.25C101.642 95 102.978 94.4469 103.962 93.4623C104.947 92.4777 105.5 91.1424 105.5 89.75V26.75C105.5 25.3576 104.947 24.0223 103.962 23.0377C102.978 22.0531 101.642 21.5 100.25 21.5ZM21.5 84.5H11V74H21.5V84.5ZM21.5 63.5H11V53H21.5V63.5ZM47.75 84.5H37.25V74H47.75V84.5ZM47.75 63.5H37.25V53H47.75V63.5ZM47.75 42.5H37.25V32H47.75V42.5ZM47.75 21.5H37.25V11H47.75V21.5ZM68.75 84.5H58.25V74H68.75V84.5ZM68.75 63.5H58.25V53H68.75V63.5ZM68.75 42.5H58.25V32H68.75V42.5ZM68.75 21.5H58.25V11H68.75V21.5ZM95 84.5H84.5V74H95V84.5ZM95 63.5H84.5V53H95V63.5ZM95 42.5H84.5V32H95V42.5Z" fill="#A1C767"/>
</svg>
