<svg width="60" height="60" viewBox="0 0 60 60" fill="none" xmlns="http://www.w3.org/2000/svg">
<path d="M53.3333 0H6.66667C3 0 0 3 0 6.66667V53.3333C0 57 3 60 6.66667 60H53.3333C57 60 60 57 60 53.3333V6.66667C60 3 57 0 53.3333 0ZM33.3333 13.6667L37 10L41.6667 14.6667L46.3333 10L50 13.6667L45.3333 18.3333L50 23L46.3333 26.6667L41.6667 22L37 26.6667L33.3333 23L38 18.3333L33.3333 13.6667ZM10.6667 15.6667H27.3333V20.6667H10.6667V15.6667ZM28.3333 43.3333H21.6667V50H16.6667V43.3333H10V38.3333H16.6667V31.6667H21.6667V38.3333H28.3333V43.3333ZM50 47.3333H33.3333V42.3333H50V47.3333ZM50 39.3333H33.3333V34.3333H50V39.3333Z" fill="#A1C767"/>
</svg>
