<svg width="161" height="133" viewBox="0 0 161 133" fill="none" xmlns="http://www.w3.org/2000/svg">
<path d="M14.875 132.125C10.8646 132.125 7.43266 130.698 4.57919 127.845C1.72085 124.986 0.291687 121.552 0.291687 117.542V66.6823C0.291687 64.2517 0.838562 62.0035 1.93231 59.9375C3.02606 57.8715 4.54516 56.1701 6.4896 54.8333L42.9479 28.7656C45.3785 26.9427 48.1736 26.0312 51.3334 26.0312C54.4931 26.0312 57.2882 26.9427 59.7188 28.7656L96.1771 54.8333C98.1216 56.1701 99.6406 57.8715 100.734 59.9375C101.828 62.0035 102.375 64.2517 102.375 66.6823V117.542C102.375 121.552 100.948 124.986 98.0948 127.845C95.2365 130.698 91.8021 132.125 87.7917 132.125H14.875ZM116.958 132.125V59.3906C116.958 56.9601 116.443 54.7118 115.413 52.6458C114.377 50.5799 112.887 48.8785 110.943 47.5417L65.9167 15.0937C65.9167 11.2049 67.3459 7.86285 70.2042 5.06771C73.0577 2.27257 76.4896 0.875 80.5 0.875H146.125C150.135 0.875 153.57 2.30174 156.428 5.15521C159.282 8.01354 160.708 11.4479 160.708 15.4583V117.542C160.708 121.552 159.282 124.986 156.428 127.845C153.57 130.698 150.135 132.125 146.125 132.125H116.958ZM36.75 117.542H65.9167V81.0833H36.75V117.542ZM116.958 102.958H131.542V88.375H116.958V102.958ZM116.958 73.7917H131.542V59.2083H116.958V73.7917ZM116.958 44.625H131.542V30.0417H116.958V44.625Z" fill="#A1C767"/>
</svg>
