<svg width="115" height="90" viewBox="0 0 115 90" fill="none" xmlns="http://www.w3.org/2000/svg">
<path d="M57.5 61.875H46C42.8195 61.875 40.25 64.3887 40.25 67.5V82.9688C40.25 86.8535 37.0336 90 33.0625 90H23.018C22.7484 90 22.4789 89.9824 22.2094 89.9648C21.9937 89.9824 21.7781 90 21.5625 90H18.6875C14.7182 90 11.5 86.8535 11.5 82.9688V63.2812C11.5 63.123 11.5054 62.9473 11.5162 62.7891V50.5547H5.75898C2.51922 50.5547 0 48.0762 0 44.9121C0 43.3301 0.539781 41.9238 1.79867 40.6934L47.8687 1.40906C49.1266 0.176133 50.5641 0 51.8219 0C53.0797 0 54.5172 0.352266 55.6133 1.23293L93.8148 34.084C92.2875 33.873 90.7242 33.75 89.125 33.75C72.6297 33.75 59.0813 46.1074 57.6258 61.875H57.5ZM115 64.6875C115 78.6621 103.41 90 89.125 90C74.8398 90 63.25 78.6621 63.25 64.6875C63.25 50.7129 74.8398 39.375 89.125 39.375C103.41 39.375 115 50.7129 115 64.6875ZM97.157 57.0762L86.25 67.7461L81.093 62.7012C79.9789 61.5938 78.1461 61.5938 77.032 62.7012C75.9 63.791 75.9 65.584 77.032 66.6738L84.2195 73.7051C85.3336 74.8125 87.1664 74.8125 88.2805 73.7051L101.218 61.0488C102.35 59.959 102.35 58.166 101.218 57.0762C100.104 55.9688 98.2711 55.9688 97.157 57.0762Z" fill="#A1C767"/>
</svg>
