<svg width="116" height="80" viewBox="0 0 116 80" fill="none" xmlns="http://www.w3.org/2000/svg">
<path d="M60.2803 10C60.2803 4.45 64.9325 0 70.7348 0H89.0303C94.7803 0 99.4848 4.5 99.4848 10V20.8C93.4212 22.85 89.0303 28.35 89.0303 34.85V45H60.2803V10ZM26.303 34.8V45H55.053V10C55.053 4.45 50.4007 0 44.5984 0H26.303C20.553 0 15.8484 4.5 15.8484 10V20.75C21.9121 22.8 26.303 28.35 26.303 34.8ZM102.935 25.15C97.8121 25.95 94.2575 30.6 94.2575 35.6V50H21.0757V35C21.0757 32.3478 19.9743 29.8043 18.0137 27.9289C16.053 26.0536 13.3939 25 10.6212 25C7.84845 25 5.1893 26.0536 3.22869 27.9289C1.26808 29.8043 0.166626 32.3478 0.166626 35V60C0.166626 65.5 4.87117 70 10.6212 70V80H21.0757V70H94.2575V80H104.712V70C110.462 70 115.167 65.5 115.167 60V35C115.167 28.95 109.469 24.1 102.935 25.15Z" fill="#A1C767"/>
</svg>
