<svg width="20" height="14" viewBox="0 0 20 14" fill="none" xmlns="http://www.w3.org/2000/svg">
<path d="M17.7141 6.13501C18.1091 6.65167 18.1091 7.34917 17.7141 7.86501C16.4699 9.48917 13.4849 12.8333 9.99993 12.8333C6.51493 12.8333 3.52993 9.48917 2.28576 7.86501C2.09358 7.61762 1.98926 7.31327 1.98926 7.00001C1.98926 6.68674 2.09358 6.3824 2.28576 6.13501C3.52993 4.51084 6.51493 1.16667 9.99993 1.16667C13.4849 1.16667 16.4699 4.51084 17.7141 6.13501V6.13501Z" stroke="#101725" stroke-opacity="0.7" stroke-width="2" stroke-linecap="round" stroke-linejoin="round"/>
<path d="M10 9.5C11.3807 9.5 12.5 8.38071 12.5 7C12.5 5.61929 11.3807 4.5 10 4.5C8.61929 4.5 7.5 5.61929 7.5 7C7.5 8.38071 8.61929 9.5 10 9.5Z" stroke="#101725" stroke-opacity="0.7" stroke-width="2" stroke-linecap="round" stroke-linejoin="round"/>
</svg>
