<svg width="26" height="25" viewBox="0 0 26 25" fill="none" xmlns="http://www.w3.org/2000/svg">
<path d="M20.9565 0C22.2558 0 23.3668 0.458442 24.2895 1.37533C25.2121 2.29221 25.6735 3.39627 25.6735 4.6875V20.3125C25.6735 21.6037 25.2121 22.7078 24.2895 23.6247C23.3668 24.5416 22.2558 25 20.9565 25H17.8773V15.3158H21.1367L21.628 11.5397H17.8773V9.13086C17.8773 8.52322 18.0056 8.06749 18.2622 7.76367C18.5188 7.45985 19.0184 7.30794 19.7609 7.30794L21.759 7.29167V3.92253C21.0711 3.82487 20.0994 3.77604 18.8437 3.77604C17.3587 3.77604 16.1713 4.21007 15.2814 5.07812C14.3915 5.94618 13.9465 7.17231 13.9465 8.75651V11.5397H10.6708V15.3158H13.9465V25H5.23322C3.93386 25 2.82286 24.5416 1.90021 23.6247C0.977561 22.7078 0.516235 21.6037 0.516235 20.3125V4.6875C0.516235 3.39627 0.977561 2.29221 1.90021 1.37533C2.82286 0.458442 3.93386 0 5.23322 0H20.9565Z" fill="white"/>
</svg>
