<svg width="26" height="26" viewBox="0 0 26 26" fill="none" xmlns="http://www.w3.org/2000/svg">
<path d="M16.8936 13C16.8936 13.7911 16.6575 14.5645 16.2152 15.2223C15.7729 15.8801 15.1443 16.3928 14.4088 16.6955C13.6733 16.9983 12.8639 17.0775 12.0831 16.9231C11.3023 16.7688 10.5851 16.3878 10.0222 15.8284C9.45927 15.269 9.07591 14.5563 8.9206 13.7804C8.76529 13.0044 8.845 12.2002 9.14965 11.4693C9.45431 10.7384 9.97022 10.1136 10.6322 9.67412C11.2941 9.2346 12.0723 9 12.8684 9C13.9349 9.0033 14.9568 9.42578 15.711 10.1752C16.4651 10.9246 16.8903 11.9401 16.8936 13ZM25.447 7.5V18.5C25.447 20.3565 24.7049 22.137 23.3839 23.4497C22.0629 24.7625 20.2712 25.5 18.403 25.5H7.33382C5.46563 25.5 3.67395 24.7625 2.35294 23.4497C1.03193 22.137 0.289795 20.3565 0.289795 18.5V7.5C0.289795 5.64348 1.03193 3.86301 2.35294 2.55025C3.67395 1.2375 5.46563 0.5 7.33382 0.5H18.403C20.2712 0.5 22.0629 1.2375 23.3839 2.55025C24.7049 3.86301 25.447 5.64348 25.447 7.5ZM18.9062 13C18.9062 11.8133 18.552 10.6533 17.8886 9.66658C17.2252 8.67988 16.2822 7.91085 15.179 7.45672C14.0757 7.0026 12.8617 6.88378 11.6905 7.11529C10.5193 7.3468 9.44348 7.91824 8.59909 8.75736C7.7547 9.59647 7.17966 10.6656 6.94669 11.8295C6.71372 12.9933 6.83329 14.1997 7.29027 15.2961C7.74725 16.3925 8.52113 17.3295 9.51403 17.9888C10.5069 18.6481 11.6743 19 12.8684 19C14.4697 19 16.0054 18.3679 17.1377 17.2426C18.27 16.1174 18.9062 14.5913 18.9062 13ZM20.9187 6.5C20.9187 6.20333 20.8302 5.91332 20.6643 5.66665C20.4985 5.41997 20.2627 5.22771 19.9869 5.11418C19.7111 5.00065 19.4076 4.97094 19.1148 5.02882C18.822 5.0867 18.5531 5.22956 18.342 5.43934C18.1309 5.64912 17.9871 5.91639 17.9289 6.20736C17.8706 6.49834 17.9005 6.79994 18.0148 7.07403C18.129 7.34811 18.3225 7.58238 18.5707 7.7472C18.8189 7.91203 19.1108 8 19.4093 8C19.8096 8 20.1936 7.84196 20.4766 7.56066C20.7597 7.27936 20.9187 6.89782 20.9187 6.5Z" fill="white"/>
</svg>
