<svg width="21" height="20" viewBox="0 0 21 20" fill="none" xmlns="http://www.w3.org/2000/svg">
<path d="M20.1761 15.1169L19.2621 19.0544C19.1338 19.6111 18.6415 20.0005 18.0648 20.0005C8.14776 19.9997 0.0817261 11.9841 0.0817261 2.12865C0.0817261 1.55599 0.473589 1.06615 1.03377 0.939195L4.99603 0.0309917C5.57308 -0.101899 6.1627 0.195757 6.40248 0.738804L8.2311 4.97709C8.44485 5.4763 8.30067 6.05794 7.87811 6.40091L5.76176 8.08959C7.09745 10.7935 9.30971 12.9919 12.0314 14.3201L13.7641 12.2185C14.1056 11.7974 14.6953 11.6517 15.1977 11.8679L19.4626 13.6847C19.9756 13.9529 20.3097 14.5466 20.1761 15.1169Z" fill="white"/>
</svg>
