<svg width="26" height="27" viewBox="0 0 26 27" fill="none" xmlns="http://www.w3.org/2000/svg">
<path d="M22.5253 0.8125H2.75889C1.2708 0.8125 0.0634766 2.03027 0.0634766 3.53125V23.4688C0.0634766 24.9697 1.2708 26.1875 2.75889 26.1875H22.5253C24.0134 26.1875 25.2207 24.9697 25.2207 23.4688V3.53125C25.2207 2.03027 24.0134 0.8125 22.5253 0.8125ZM19.7793 9.80703C19.7906 9.96562 19.7906 10.1299 19.7906 10.2885C19.7906 15.1992 16.0844 20.8576 9.31213 20.8576C7.22318 20.8576 5.28585 20.2459 3.65737 19.1924C3.95499 19.2264 4.24137 19.2377 4.54461 19.2377C6.26855 19.2377 7.85211 18.6486 9.11559 17.6518C7.49834 17.6178 6.1394 16.5473 5.67332 15.0746C6.24048 15.1596 6.75148 15.1596 7.33549 15.0066C5.65085 14.6611 4.38738 13.1658 4.38738 11.359V11.3137C4.87592 11.5912 5.4487 11.7611 6.04955 11.7838C5.5444 11.4449 5.13029 10.9851 4.84418 10.4455C4.55806 9.90583 4.40884 9.30316 4.40984 8.69121C4.40984 8.0002 4.58953 7.36582 4.90961 6.81641C6.72341 9.0707 9.4469 10.5434 12.5017 10.702C11.9795 8.18145 13.8494 6.13672 16.0956 6.13672C17.1569 6.13672 18.1115 6.58418 18.7854 7.30918C19.6165 7.15059 20.4139 6.83906 21.1214 6.41426C20.8463 7.2752 20.2679 8.0002 19.5042 8.45898C20.2454 8.37969 20.9642 8.17012 21.6268 7.88125C21.127 8.62324 20.4981 9.28027 19.7793 9.80703Z" fill="white"/>
</svg>
