<svg width="10" height="18" viewBox="0 0 10 18" fill="none" xmlns="http://www.w3.org/2000/svg">
<path d="M8.98002 16.7049C9.20729 16.4777 9.33496 16.1696 9.33496 15.8483C9.33496 15.5271 9.20729 15.219 8.98002 14.9918L2.97921 8.99496L8.98002 2.9981C9.20085 2.76961 9.32304 2.46359 9.32028 2.14594C9.31752 1.82829 9.19002 1.52444 8.96525 1.29982C8.74049 1.0752 8.43643 0.947788 8.11857 0.945028C7.80072 0.942268 7.49449 1.06438 7.26585 1.28506L0.407959 8.13844C0.180691 8.36563 0.0530176 8.67372 0.0530176 8.99496C0.0530176 9.31621 0.180691 9.6243 0.407959 9.85148L7.26585 16.7049C7.49319 16.932 7.80148 17.0596 8.12294 17.0596C8.44439 17.0596 8.75268 16.932 8.98002 16.7049Z" fill="#101725"/>
</svg>
