<svg width="10" height="18" viewBox="0 0 10 18" fill="none" xmlns="http://www.w3.org/2000/svg">
<path d="M1.0201 1.28537C0.792833 1.51256 0.665161 1.82065 0.665161 2.14189C0.665161 2.46313 0.792833 2.77123 1.0201 2.99841L7.02091 8.99527L1.0201 14.9921C0.799274 15.2206 0.677082 15.5266 0.679844 15.8443C0.682607 16.1619 0.810102 16.4658 1.03487 16.6904C1.25964 16.915 1.56369 17.0424 1.88155 17.0452C2.19941 17.048 2.50563 16.9259 2.73427 16.7052L9.59216 9.85179C9.81943 9.62461 9.9471 9.31651 9.9471 8.99527C9.9471 8.67403 9.81943 8.36594 9.59216 8.13875L2.73427 1.28537C2.50693 1.05825 2.19864 0.930664 1.87719 0.930664C1.55573 0.930664 1.24744 1.05825 1.0201 1.28537Z" fill="#101725"/>
</svg>
