<svg width="8" height="13" viewBox="0 0 8 13" fill="none" xmlns="http://www.w3.org/2000/svg">
<path d="M1.39411 1.41347L5.96161 6.0991L1.39411 10.7847C1.31234 10.8684 1.26656 10.9808 1.26656 11.0978C1.26656 11.2149 1.31234 11.3273 1.39411 11.411C1.43383 11.4515 1.48123 11.4837 1.53355 11.5057C1.58587 11.5277 1.64205 11.539 1.6988 11.539C1.75555 11.539 1.81173 11.5277 1.86405 11.5057C1.91636 11.4837 1.96377 11.4515 2.00349 11.411L6.86349 6.42628C6.94881 6.33875 6.99657 6.22134 6.99657 6.0991C6.99657 5.97685 6.94881 5.85945 6.86349 5.77191L2.00442 0.78722C1.96468 0.746398 1.91716 0.713952 1.86466 0.691797C1.81217 0.669643 1.75578 0.65823 1.6988 0.65823C1.64182 0.65823 1.58543 0.669643 1.53293 0.691797C1.48044 0.713952 1.43292 0.746398 1.39317 0.78722C1.3114 0.870936 1.26563 0.98332 1.26563 1.10035C1.26562 1.21737 1.3114 1.32975 1.39317 1.41347H1.39411Z" fill="#101725" stroke="#101725"/>
</svg>
