<svg width="15" height="9" viewBox="0 0 15 9" fill="none" xmlns="http://www.w3.org/2000/svg">
<path d="M13.7019 0.657492L7.45438 6.74749L1.20688 0.657492C1.09526 0.548464 0.945414 0.487425 0.78938 0.487425C0.633346 0.487425 0.483502 0.548464 0.37188 0.657492C0.317833 0.710447 0.274895 0.773654 0.245583 0.843412C0.21627 0.91317 0.201172 0.988075 0.201172 1.06374C0.201172 1.13941 0.21627 1.21431 0.245583 1.28407C0.274895 1.35383 0.317833 1.41704 0.37188 1.46999L7.01813 7.94999C7.13485 8.06376 7.29139 8.12743 7.45438 8.12743C7.61737 8.12743 7.77391 8.06376 7.89063 7.94999L14.5369 1.47124C14.5913 1.41825 14.6346 1.35488 14.6641 1.2849C14.6936 1.21491 14.7089 1.13971 14.7089 1.06374C14.7089 0.987774 14.6936 0.912576 14.6641 0.842587C14.6346 0.772598 14.5913 0.709236 14.5369 0.656241C14.4253 0.547213 14.2754 0.486176 14.1194 0.486176C13.9633 0.486176 13.8135 0.547213 13.7019 0.656241V0.657492Z" fill="#101725"/>
</svg>
