<svg width="24" height="24" viewBox="0 0 24 24" fill="none" xmlns="http://www.w3.org/2000/svg">
<path d="M1.5 3.8335H6.16667M22.5 3.8335H10.8333M1.5 12.0002H15.5M22.5 12.0002H20.1667M1.5 20.1668H3.83333M22.5 20.1668H8.5" stroke="#A1C767" stroke-width="2" stroke-linecap="round"/>
<path d="M8.50008 6.16667C9.78875 6.16667 10.8334 5.122 10.8334 3.83333C10.8334 2.54467 9.78875 1.5 8.50008 1.5C7.21142 1.5 6.16675 2.54467 6.16675 3.83333C6.16675 5.122 7.21142 6.16667 8.50008 6.16667Z" stroke="#A1C767" stroke-width="2" stroke-linecap="round"/>
<path d="M17.8333 14.3332C19.122 14.3332 20.1667 13.2885 20.1667 11.9998C20.1667 10.7112 19.122 9.6665 17.8333 9.6665C16.5447 9.6665 15.5 10.7112 15.5 11.9998C15.5 13.2885 16.5447 14.3332 17.8333 14.3332Z" stroke="#A1C767" stroke-width="2" stroke-linecap="round"/>
<path d="M6.16659 22.5002C7.45525 22.5002 8.49992 21.4555 8.49992 20.1668C8.49992 18.8782 7.45525 17.8335 6.16659 17.8335C4.87792 17.8335 3.83325 18.8782 3.83325 20.1668C3.83325 21.4555 4.87792 22.5002 6.16659 22.5002Z" stroke="#A1C767" stroke-width="2" stroke-linecap="round"/>
</svg>
