<svg width="20" height="20" viewBox="0 0 20 20" fill="none" xmlns="http://www.w3.org/2000/svg">
<path d="M19.9688 15.1171L19.0605 19.0546C18.933 19.6113 18.4438 20.0007 17.8707 20.0007C8.01562 19.9999 0 11.9843 0 2.12883C0 1.55617 0.389414 1.06633 0.946094 0.939378L4.88359 0.0311748C5.45703 -0.101716 6.04297 0.19594 6.28125 0.738987L8.09844 4.97727C8.31086 5.47649 8.16758 6.05813 7.74766 6.4011L5.64453 8.08977C6.97188 10.7937 9.17031 12.9921 11.875 14.3202L13.5969 12.2187C13.9362 11.7976 14.5223 11.6519 15.0215 11.8681L19.2598 13.6849C19.7695 13.953 20.1016 14.5468 19.9688 15.1171Z" fill="#A1C767"/>
</svg>
