<svg width="12" height="16" viewBox="0 0 12 16" fill="none" xmlns="http://www.w3.org/2000/svg">
<path fill-rule="evenodd" clip-rule="evenodd" d="M6.23999 15.4237L6.23996 15.4238C6.09621 15.525 5.90371 15.525 5.75996 15.4238L5.75829 15.4229L5.75454 15.42L5.74121 15.4108C5.66448 15.3549 5.5885 15.298 5.51329 15.24C5.35996 15.1225 5.14288 14.9496 4.88288 14.7275C4.20146 14.1451 3.56428 13.5128 2.97663 12.8358C1.59829 11.2417 0.166626 8.96625 0.166626 6.36542C0.165892 4.81195 0.77972 3.32126 1.87413 2.21875C2.41456 1.6744 3.05732 1.24231 3.7654 0.947339C4.47347 0.652366 5.2329 0.500336 5.99996 0.5C6.76705 0.500391 7.52649 0.652486 8.23457 0.947531C8.94265 1.24258 9.58539 1.67475 10.1258 2.21917C11.2191 3.31917 11.8333 4.81083 11.8333 6.365C11.8333 8.96625 10.4016 11.2417 9.02329 12.8358C8.43564 13.5128 7.79846 14.1451 7.11704 14.7275C6.85746 14.9496 6.63996 15.1225 6.48663 15.24C6.41044 15.2988 6.34989 15.3436 6.30824 15.3744L6.30746 15.375L6.25829 15.4104L6.24579 15.42L6.24163 15.4229L6.23999 15.4237ZM7.47313 7.80647C7.86383 7.41577 8.08332 6.88587 8.08332 6.33333C8.08332 5.7808 7.86383 5.2509 7.47313 4.86019C7.08243 4.46949 6.55252 4.25 5.99999 4.25C5.44746 4.25 4.91755 4.46949 4.52685 4.86019C4.13615 5.2509 3.91666 5.7808 3.91666 6.33333C3.91666 6.88587 4.13615 7.41577 4.52685 7.80647C4.91755 8.19717 5.44746 8.41667 5.99999 8.41667C6.55252 8.41667 7.08243 8.19717 7.47313 7.80647Z" fill="#A1C767"/>
</svg>
