<svg width="10" height="6" viewBox="0 0 10 6" fill="none" xmlns="http://www.w3.org/2000/svg">
<path d="M8.12377 1.32882L5.00002 4.37382L1.87627 1.32882C1.82046 1.27431 1.74553 1.24379 1.66752 1.24379C1.5895 1.24379 1.51458 1.27431 1.45877 1.32882C1.43174 1.3553 1.41027 1.3869 1.39562 1.42178C1.38096 1.45666 1.37341 1.49411 1.37341 1.53195C1.37341 1.56978 1.38096 1.60723 1.39562 1.64211C1.41027 1.67699 1.43174 1.70859 1.45877 1.73507L4.78189 4.97507C4.84025 5.03196 4.91852 5.06379 5.00002 5.06379C5.08151 5.06379 5.15978 5.03196 5.21814 4.97507L8.54127 1.7357C8.56848 1.7092 8.59011 1.67752 8.60488 1.64252C8.61965 1.60753 8.62726 1.56993 8.62726 1.53195C8.62726 1.49396 8.61965 1.45636 8.60488 1.42137C8.59011 1.38638 8.56848 1.35469 8.54127 1.3282C8.48546 1.27368 8.41053 1.24316 8.33252 1.24316C8.2545 1.24316 8.17958 1.27368 8.12377 1.3282V1.32882Z" fill="#101725" stroke="#101725"/>
</svg>
